<svg xmlns="http://www.w3.org/2000/svg" viewBox="0 0 50 50" id="grasshopper">
  <g>
    <path fill="#617447" d="M6.30371,20.48636c-.90137-1.43457-2.16992-3.8584-2.16992-4.75391a1,1,0,0,0-2,0c0,1.78418,2.0625,5.15918,2.47656,5.81836a1.00007,1.00007,0,1,0,1.69336-1.06445Z"></path>
    <path fill="#4c5e34" d="M24.11914,39.6135H22.26855a1,1,0,0,1,0-2h.53614l-4.39942-6.793A.99979.99979,0,0,1,20.083,29.73264l5.11426,7.89649a1.285,1.285,0,0,1-1.07813,1.98437Zm-.60059-.89746h0Z"></path>
    <path fill="#f9cc4b" d="M43.19955,31.73354a53.00674,53.00674,0,0,1-12.393,1.29291,52.98325,52.98325,0,0,1-10.91293-1.29291q.41458-5.06186.82916-10.12375H43.19955a4.66665,4.66665,0,0,1,4.66666,4.66666v.79043A4.66664,4.66664,0,0,1,43.19955,31.73354Z"></path>
    <path fill="#f5bb19" d="M24.69922,32.43186c-.00977,0-.02051,0-.03125-.001a.376.376,0,0,1-.34277-.40527l.082-.99609a.36471.36471,0,0,1,.40527-.34278.37606.37606,0,0,1,.34277.40528l-.082.99609A.37594.37594,0,0,1,24.69922,32.43186ZM25.375,28.4094l.14648-1.78809a.37524.37524,0,1,0-.748-.06054L24.627,28.34885a.37582.37582,0,0,0,.34375.4043c.00977.001.02051.001.03028.001A.376.376,0,0,0,25.375,28.4094Zm.36523-4.46875.082-.99609a.37606.37606,0,0,0-.34278-.40528.36753.36753,0,0,0-.40527.34278l-.082.99609a.376.376,0,0,0,.34277.40527c.01074.001.02149.001.03125.001A.37594.37594,0,0,0,25.74023,23.94065Zm3.65723,8.501.082-.99707a.37524.37524,0,1,0-.748-.06055l-.082.99707a.37582.37582,0,0,0,.34375.4043c.00977.001.02051.001.03028.001A.376.376,0,0,0,29.39746,32.44163Zm.30078-3.67871.14649-1.78809a.37525.37525,0,0,0-.748-.06055l-.14648,1.78809a.37581.37581,0,0,0,.34375.4043c.00976.001.0205.001.03027.001A.376.376,0,0,0,29.69824,28.76292Zm.36621-4.46875.08106-.99707a.37525.37525,0,0,0-.74805-.06055l-.081.99707a.37592.37592,0,0,0,.34375.4043c.00976.001.0205.001.03027.001A.376.376,0,0,0,30.06445,24.29417Zm3.71485,7.79394.082-.99609a.37606.37606,0,0,0-.34278-.40528.36316.36316,0,0,0-.40527.34278l-.082.99609a.376.376,0,0,0,.34277.40527c.01075.001.02149.001.03125.001A.376.376,0,0,0,33.7793,32.08811Zm.28613-3.49609.13574-1.666a.37524.37524,0,1,0-.748-.06055l-.13575,1.666a.37524.37524,0,0,0,.34375.4043c.00977.001.02051.001.03028.001A.376.376,0,0,0,34.06543,28.592Zm.34082-4.165.082-.9961a.37605.37605,0,0,0-.34277-.40527.36655.36655,0,0,0-.40528.34277l-.082.9961a.37605.37605,0,0,0,.34278.40527c.01074.001.02148.001.03125.001A.37594.37594,0,0,0,34.40625,24.427Zm3.72656,7.66015.08106-.99609a.37525.37525,0,0,0-.748-.06055l-.081.9961a.37522.37522,0,0,0,.34375.40429c.00976.001.0205.001.03027.001A.376.376,0,0,0,38.13281,32.08713Zm.28321-3.46777.13476-1.64746a.37582.37582,0,0,0-.34375-.4043.38013.38013,0,0,0-.4043.34375L37.668,28.55881a.37582.37582,0,0,0,.34375.4043c.00976.001.02051.001.03027.001A.37605.37605,0,0,0,38.416,28.61936Zm.33789-4.12012.08105-.99707a.37525.37525,0,0,0-.748-.06054l-.08105.99707a.37591.37591,0,0,0,.34375.40429c.00977.001.02051.001.03027.001A.37605.37605,0,0,0,38.75391,24.49924Zm3.79492,6.81739.081-.99707a.37524.37524,0,1,0-.748-.06055l-.08106.99707a.37592.37592,0,0,0,.34375.4043c.00977.001.02051.001.03027.001A.376.376,0,0,0,42.54883,31.31663Zm.25976-3.17481.11914-1.45215a.37524.37524,0,0,0-.748-.06054l-.11914,1.45215a.37581.37581,0,0,0,.34375.40429c.00976.001.0205.001.03027.001A.376.376,0,0,0,42.80859,28.14182Zm.29688-3.62988.08105-.99707a.37524.37524,0,1,0-.748-.06055l-.08106.99707a.37592.37592,0,0,0,.34375.4043c.00977.001.02051.001.03028.001A.376.376,0,0,0,43.10547,24.51194Z"></path>
    <path fill="#74915b" d="M46.93658,19.97146c-8.73,5.57-25.38948,5.63995-26.0995,5.63995l.66951-4.02c.16-.04,14.8-3.88,21.01-10.54a1.99822,1.99822,0,0,1,2.62-.31l.04.03a1.97293,1.97293,0,0,1,.29,2.97,31.72177,31.72177,0,0,1-8.04,5.88,26.31805,26.31805,0,0,0,7.33-2.99,1.993,1.993,0,0,1,2.61.35l.03.04A1.97275,1.97275,0,0,1,46.93658,19.97146Z"></path>
    <path fill="#4c5e34" d="M42.25293,39.6135H39.32715a1.89232,1.89232,0,0,1-1.85938-1.543L32.9834,14.08518a1.00039,1.00039,0,0,1,1.9668-.36719L39.417,37.6135h2.83594a1,1,0,1,1,0,2Z"></path>
    <rect width="19.749" height="4.001" x="20.119" y="18.121" fill="#617447" rx="2" ry="2" transform="rotate(-55.945 29.994 20.122)"></rect>
    <path fill="#74915b" d="M6.07832,19.88679l5.381.93652a2.08609,2.08609,0,0,1,1.6949,2.42753l-1.05591,5.82081a3.37246,3.37246,0,0,1-3.90059,2.71986h0L7.174,31.51386a3.30881,3.30881,0,0,1-3.19586.75272l-1.11191-.302V22.58814A2.742,2.742,0,0,1,6.07832,19.88679Z"></path>
    <path fill="#617447" d="M20.4388,19.74592l-7.26394,1.11362a1.317,1.317,0,0,0-1.08944,1.03182l-1.99771,9.53918,7.382,1.603A2.46,2.46,0,0,0,20.423,31.0043l1.50522-9.76781A1.30665,1.30665,0,0,0,20.4388,19.74592Z"></path>
    <path fill="#74915b" d="M17.05664,25.5471l-2.042-.13477a1.0156,1.0156,0,0,0-1.06348.93262.99861.99861,0,0,0,.92011,1.06012L12.94043,37.6135H11.80371a1,1,0,0,0,0,2h1.96582a.99945.99945,0,0,0,.98242-.81445L16.8808,27.5402l.045.003c.02246.001.04395.002.06641.002a1.00009,1.00009,0,0,0,.06445-1.998Z"></path>
    <path fill="#4c5e34" d="M5.57617,25.22971a1.0032,1.0032,0,0,1,1-1h0a.99693.99693,0,0,1,1,1h0a.99632.99632,0,0,1-1,1h0A1.00257,1.00257,0,0,1,5.57617,25.22971Z"></path>
  </g>
</svg>
